<svg viewBox="0 0 512 243" width="120" height="56" xmlns="http://www.w3.org/2000/svg" xmlns:xlink="http://www.w3.org/1999/xlink" preserveAspectRatio="xMidYMid meet">
  <defs></defs>
  <style>
    .companyName {fill:#EDEDED;fill-opacity:1;}
    .icon1 {fill:#EDEDED;fill-opacity:1;}
    .icon2 {fill:#F35F40;fill-opacity:1;}
    .icon3 {fill:#B2B2B1;fill-opacity:1;}
    .icon3-str {stroke:#B2B2B1;stroke-opacity:1;}
    .text {fill:#EDEDED;fill-opacity:1;}
  </style>
  <g opacity="1" transform="translate(0,5)">
    <svg width="124" height="124" x="194" y="60" version="1.1" preserveAspectRatio="xMidYMid meet" viewBox="20 19.5 160 160">
      <g transform="matrix(1 0 0 1 0 5)">
        <g>
          <path d="M180 114.7l-80 40.7-80-40.7v-8.8l80 40.7 80-40.7v8.8z" class="icon1"></path>
          <path d="M139.6 70.8L180 90.6v-8.5l-40.4-19.8" class="icon1"></path>
          <path d="M60.4 62.3L20 82.1v8.5l40.3-19.8" class="icon1"></path>
          <path d="M180 90.6l-80 40.7-80-40.7v-8.8l80 40.7 80-40.7v8.8z" class="icon1"></path>
          <path d="M180 138.8l-80 40.7-80-40.7V130l80 40.7 80-40.7v8.8z" class="icon1"></path>
          <path d="M139.6 62.3L100 42.9 60.4 62.3l-.1 8.6L100 51.4l39.6 19.4v-8.5z" class="icon2"></path>
          <path d="M180 90.6l-80 40.7-80-40.7v-8.8l80 40.7 80-40.7v8.8z" class="icon1"></path>
          <path d="M139.6 85.7L100 66.2 60.4 85.7l-.1 8.6L100 74.8l39.6 19.4v-8.5z" class="icon2"></path>
          <path d="M139.6 38.9L100 19.5 60.4 38.9l-.1 8.6L100 28l39.6 19.4v-8.5z" class="icon2"></path>
        </g>
      </g>
    </svg>
  </g>
</svg>
